<svg width="23" height="20" viewBox="0 0 23 20" fill="none" xmlns="http://www.w3.org/2000/svg">
<path d="M21.4535 3.38746C20.1739 1.78278 18.3754 0.851532 16.677 0.851532C14.4348 0.851532 13.4864 1.92496 11.9286 1.92496C10.3224 1.92496 9.10205 0.854657 7.163 0.854657C5.25832 0.854657 3.23021 2.01871 1.94428 4.00933C0.136479 6.81244 0.445852 12.0827 3.37552 16.5718C4.42395 18.178 5.82395 19.9842 7.65518 19.9999C9.28486 20.0155 9.74424 18.9546 11.952 18.9436C14.1598 18.9311 14.5786 20.0139 16.2051 19.9967C18.0379 19.9827 19.5145 17.9811 20.5629 16.3749C21.3145 15.2233 21.5942 14.6436 22.177 13.3436C17.9379 11.7296 17.2583 5.7015 21.4535 3.38746Z" fill="black"/>
</svg>
